<svg aria-hidden="true" style="position: absolute; width: 0; height: 0; overflow: hidden;" version="1.1" xmlns="http://www.w3.org/2000/svg" xmlns:xlink="http://www.w3.org/1999/xlink">
<defs>
<symbol id="icon-schedule" viewBox="0 0 24 24">
<title>schedule</title>
<path d="M12.516 6.984v5.25l4.5 2.672-0.75 1.266-5.25-3.188v-6h1.5zM12 20.016c4.406 0 8.016-3.609 8.016-8.016s-3.609-8.016-8.016-8.016-8.016 3.609-8.016 8.016 3.609 8.016 8.016 8.016zM12 2.016c5.531 0 9.984 4.453 9.984 9.984s-4.453 9.984-9.984 9.984-9.984-4.453-9.984-9.984 4.453-9.984 9.984-9.984z"></path>
</symbol>
<symbol id="icon-all_inclusive" viewBox="0 0 24 24">
<title>all_inclusive</title>
<path d="M18.609 6.609c3 0 5.391 2.438 5.391 5.391s-2.391 5.391-5.391 5.391c-1.453 0-2.813-0.563-3.844-1.594l-1.266-1.125 1.5-1.313 1.172 0.984c0.703 0.703 1.547 1.031 2.438 1.031 1.875 0 3.375-1.5 3.375-3.375s-1.5-3.375-3.375-3.375c-0.891 0-1.734 0.328-2.391 0.984-1.412 1.244-2.835 2.478-4.219 3.75l-2.813 2.484c-0.984 0.984-2.344 1.547-3.797 1.547-3 0-5.391-2.438-5.391-5.391s2.391-5.391 5.391-5.391c1.453 0 2.813 0.563 3.844 1.594l1.266 1.125-1.547 1.313-1.125-0.984c-0.703-0.703-1.547-1.031-2.438-1.031-1.875 0-3.375 1.5-3.375 3.375s1.5 3.375 3.375 3.375c0.891 0 1.734-0.328 2.391-0.984 1.412-1.244 2.835-2.478 4.219-3.75l2.813-2.484c0.984-0.984 2.344-1.547 3.797-1.547z"></path>
</symbol>
<symbol id="icon-cached" viewBox="0 0 24 24">
<title>cached</title>
<path d="M6 12h3l-3.984 3.984-4.031-3.984h3c0-4.406 3.609-8.016 8.016-8.016 1.547 0 3.047 0.469 4.266 1.266l-1.453 1.453c-0.844-0.469-1.781-0.703-2.813-0.703-3.328 0-6 2.672-6 6zM18.984 8.016l4.031 3.984h-3c0 4.406-3.609 8.016-8.016 8.016-1.547 0-3.047-0.469-4.266-1.266l1.453-1.453c0.844 0.469 1.781 0.703 2.813 0.703 3.328 0 6-2.672 6-6h-3z"></path>
</symbol>
<symbol id="icon-fast_forward" viewBox="0 0 24 24">
<title>fast_forward</title>
<path d="M12.984 6l8.531 6-8.531 6v-12zM3.984 18v-12l8.531 6z"></path>
</symbol>
<symbol id="icon-fast_rewind" viewBox="0 0 24 24">
<title>fast_rewind</title>
<path d="M11.484 12l8.531-6v12zM11.016 18l-8.531-6 8.531-6v12z"></path>
</symbol>
<symbol id="icon-first_page" viewBox="0 0 24 24">
<title>first_page</title>
<path d="M6 6h2.016v12h-2.016v-12zM18.422 16.594l-1.406 1.406-6-6 6-6 1.406 1.406-4.594 4.594z"></path>
</symbol>
<symbol id="icon-last_page" viewBox="0 0 24 24">
<title>last_page</title>
<path d="M15.984 6h2.016v12h-2.016v-12zM5.578 7.406l1.406-1.406 6 6-6 6-1.406-1.406 4.594-4.594z"></path>
</symbol>
<symbol id="icon-pause" viewBox="0 0 24 24">
<title>pause</title>
<path d="M14.016 5.016h3.984v13.969h-3.984v-13.969zM6 18.984v-13.969h3.984v13.969h-3.984z"></path>
</symbol>
<symbol id="icon-pause_circle_filled" viewBox="0 0 24 24">
<title>pause_circle_filled</title>
<path d="M15 15.984v-7.969h-2.016v7.969h2.016zM11.016 15.984v-7.969h-2.016v7.969h2.016zM12 2.016c5.531 0 9.984 4.453 9.984 9.984s-4.453 9.984-9.984 9.984-9.984-4.453-9.984-9.984 4.453-9.984 9.984-9.984z"></path>
</symbol>
<symbol id="icon-pause_circle_outline" viewBox="0 0 24 24">
<title>pause_circle_outline</title>
<path d="M12.984 15.984v-7.969h2.016v7.969h-2.016zM12 20.016c4.406 0 8.016-3.609 8.016-8.016s-3.609-8.016-8.016-8.016-8.016 3.609-8.016 8.016 3.609 8.016 8.016 8.016zM12 2.016c5.531 0 9.984 4.453 9.984 9.984s-4.453 9.984-9.984 9.984-9.984-4.453-9.984-9.984 4.453-9.984 9.984-9.984zM9 15.984v-7.969h2.016v7.969h-2.016z"></path>
</symbol>
<symbol id="icon-play_arrow" viewBox="0 0 24 24">
<title>play_arrow</title>
<path d="M8.016 5.016l10.969 6.984-10.969 6.984v-13.969z"></path>
</symbol>
<symbol id="icon-play_circle_filled" viewBox="0 0 24 24">
<title>play_circle_filled</title>
<path d="M9.984 16.5l6-4.5-6-4.5v9zM12 2.016c5.531 0 9.984 4.453 9.984 9.984s-4.453 9.984-9.984 9.984-9.984-4.453-9.984-9.984 4.453-9.984 9.984-9.984z"></path>
</symbol>
<symbol id="icon-play_circle_outline" viewBox="0 0 24 24">
<title>play_circle_outline</title>
<path d="M12 20.016c4.406 0 8.016-3.609 8.016-8.016s-3.609-8.016-8.016-8.016-8.016 3.609-8.016 8.016 3.609 8.016 8.016 8.016zM12 2.016c5.531 0 9.984 4.453 9.984 9.984s-4.453 9.984-9.984 9.984-9.984-4.453-9.984-9.984 4.453-9.984 9.984-9.984zM9.984 16.5v-9l6 4.5z"></path>
</symbol>
<symbol id="icon-refresh" viewBox="0 0 24 24">
<title>refresh</title>
<path d="M17.672 6.328l2.344-2.344v7.031h-7.031l3.234-3.234c-1.078-1.078-2.578-1.781-4.219-1.781-3.328 0-6 2.672-6 6s2.672 6 6 6c2.625 0 4.875-1.641 5.672-3.984h2.063c-0.891 3.469-3.984 6-7.734 6-4.406 0-7.969-3.609-7.969-8.016s3.563-8.016 7.969-8.016c2.203 0 4.219 0.891 5.672 2.344z"></path>
</symbol>
<symbol id="icon-repeat" viewBox="0 0 24 24">
<title>repeat</title>
<path d="M17.016 17.016v-4.031h1.969v6h-12v3l-3.984-3.984 3.984-3.984v3h10.031zM6.984 6.984v4.031h-1.969v-6h12v-3l3.984 3.984-3.984 3.984v-3h-10.031z"></path>
</symbol>
<symbol id="icon-skip_next" viewBox="0 0 24 24">
<title>skip_next</title>
<path d="M15.984 6h2.016v12h-2.016v-12zM6 18v-12l8.484 6z"></path>
</symbol>
<symbol id="icon-skip_previous" viewBox="0 0 24 24">
<title>skip_previous</title>
<path d="M9.516 12l8.484-6v12zM6 6h2.016v12h-2.016v-12z"></path>
</symbol>
<symbol id="icon-volume_down" viewBox="0 0 24 24">
<title>volume_down</title>
<path d="M5.016 9h3.984l5.016-5.016v16.031l-5.016-5.016h-3.984v-6zM18.516 12c0 1.781-1.031 3.281-2.531 4.031v-8.063c1.5 0.75 2.531 2.25 2.531 4.031z"></path>
</symbol>
<symbol id="icon-volume_mute" viewBox="0 0 24 24">
<title>volume_mute</title>
<path d="M6.984 9h4.031l4.969-5.016v16.031l-4.969-5.016h-4.031v-6z"></path>
</symbol>
<symbol id="icon-volume_off" viewBox="0 0 24 24">
<title>volume_off</title>
<path d="M12 3.984v4.219l-2.109-2.109zM4.266 3l16.734 16.734-1.266 1.266-2.063-2.063c-1.078 0.844-2.297 1.5-3.656 1.828v-2.063c0.844-0.234 1.594-0.656 2.25-1.172l-4.266-4.266v6.75l-5.016-5.016h-3.984v-6h4.734l-4.734-4.734zM18.984 12c0-3.188-2.063-5.859-4.969-6.703v-2.063c4.031 0.891 6.984 4.5 6.984 8.766 0 1.5-0.375 2.953-1.031 4.172l-1.5-1.547c0.328-0.797 0.516-1.688 0.516-2.625zM16.5 12c0 0.234 0 0.422-0.047 0.609l-2.438-2.438v-2.203c1.5 0.75 2.484 2.25 2.484 4.031z"></path>
</symbol>
<symbol id="icon-volume_up" viewBox="0 0 24 24">
<title>volume_up</title>
<path d="M14.016 3.234c4.031 0.891 6.984 4.5 6.984 8.766s-2.953 7.875-6.984 8.766v-2.063c2.906-0.844 4.969-3.516 4.969-6.703s-2.063-5.859-4.969-6.703v-2.063zM16.5 12c0 1.781-0.984 3.281-2.484 4.031v-8.063c1.5 0.75 2.484 2.25 2.484 4.031zM3 9h3.984l5.016-5.016v16.031l-5.016-5.016h-3.984v-6z"></path>
</symbol>
</defs>
</svg>
